<?xml version="1.0" encoding="utf-8"?>
<!-- Generator: Adobe Illustrator 25.4.1, SVG Export Plug-In . SVG Version: 6.00 Build 0)  -->
<svg version="1.1" id="Layer_1" xmlns="http://www.w3.org/2000/svg" xmlns:xlink="http://www.w3.org/1999/xlink" x="0px" y="0px"
	 viewBox="0 0 100 100" style="enable-background:new 0 0 100 100;" xml:space="preserve">
<style type="text/css">
	.st0{fill:#B71616;}
</style>
<g>
	<path class="st0" d="M50.4,36.76c2.06,0.08,3.93,0.88,5.82,1.76c3.41,1.59,6.08,3.28,8.18,6.44l0.73,1.18l0.56,0.9l0.5,0.95
		l0.62,1.34l0.45,1.12l0.22,0.62l0.11,0.5l1.06,2.18l0.5,1.12l0.73,1.18l0.56,0.73l0.5,0.56l0.78,0.84l0.45,0.45l0.62,0.5l0.84,0.73
		l0.62,0.5l0.56,0.5l0.62,0.5l0.67,0.62l1.01,1.01l0.5,0.62l0.67,0.73l0.73,1.01l0.56,0.9l0.73,1.51l0.56,1.23
		c0,0,0.27,0.88,0.28,0.9c1.31,4.18,0.84,9.48-0.92,13.46c-1.88,4.25-5.16,7.32-9.28,9.28c-2.89,1.37-6.42,1.64-9.58,1.53
		c-1.8-0.07-3.72-0.65-4.77-2.12c-1.26-1.77-1.19-5.03,0.22-6.73c1.24-1.49,3.53-1.67,5.17-2.53c0,0,1.06-0.56,1.06-0.56l1.12-0.5
		l0.84-0.45l0.45-0.34l0.39-0.45l0.56-0.5l0.45-0.39l0.5-0.62l0.5-0.67l0.67-1.12c0,0,0.59-1.13,0.62-1.18
		c0.68-1.3,0.86-2.7,0.18-4.04c-0.18-0.35-0.4-0.68-0.7-0.92c-1.25-1.03-3.59-0.68-5.08-0.79c-0.23-0.02-0.46-0.04-0.67-0.14
		c-1.1-0.54-1.69-2.51-2.21-3.51c-0.11-0.22-0.23-0.44-0.4-0.62c-0.24-0.26-0.57-0.41-0.91-0.53c-2.44-0.9-5.22-0.53-7.77-0.43
		c-0.24,0.01-0.48,0.02-0.7-0.09c-0.22-0.11-0.36-0.32-0.49-0.53c-1.66-2.71-1.97-5.66-4.64-7.71c-0.12,0.03-0.18,0.19-0.11,0.29
		c-0.23-0.36-1.39,1.02-1.5,1.15l-0.28,0.56l-0.11,0.5l-0.06,0.95c0,0,0,4.46,0,4.54c0,4.21,0.35,8.5,0.16,12.69
		c-0.2,4.4-1.44,9.05-5.09,11.79c-5.06,3.79-12.27,3.09-16.55-1.58c-2.83-3.09-4.44-7.67-4.63-11.82
		c-0.17-3.65,1.66-8.37,3.72-11.34c1.35-1.94,3.25-3.16,4.96-4.72l0.62-0.5l0.45-0.39l0.5-0.62l0.84-1.12l0.67-1.06l0.5-0.84
		l0.73-1.18l0.73-1.29l0.5-0.95l0.39-1.06l0.34-0.95l0.73-1.74l0.62-1.34c0,0,0.22-0.56,0.22-0.56c1.92-3.46,5.15-6.06,8.76-7.59
		c2.07-0.88,4.28-1.54,6.53-1.71C49.77,36.75,50.09,36.74,50.4,36.76z"/>
	<path class="st0" d="M66.92,5.84c2.71-0.15,5.48,0.84,7.19,3c1.18,1.48,1.8,3.33,2.14,5.2c1.46,8.14-3.54,20.97-13.36,20.88
		c-8.16-0.07-9.69-10.16-8.25-16.35c1.08-4.62,3.9-8.99,7.97-11.48c0,0,0.84-0.39,0.84-0.39C64.53,6.19,65.72,5.9,66.92,5.84z"/>
	<path class="st0" d="M31.13,6.17c2.6-0.42,5.45,0.26,7.88,2.2c4.83,3.87,7.25,10.94,6.61,16.98c-0.46,4.43-4.08,9.76-9.03,9.69
		c-1.47-0.02-2.88-0.61-4.16-1.34c-2.74-1.56-5.06-3.75-6.68-6.45c0,0-0.45-0.9-0.45-0.9c-1.62-3.89-2.56-8.52-1.71-12.72
		C24.45,9.39,27.55,6.75,31.13,6.17z"/>
	<path class="st0" d="M12.25,32.74h1.9l1.18,0.22c0,0,0.9,0.28,0.9,0.28c7.73,2.41,13.08,14.24,7.84,21.23c0,0-0.5,0.56-0.5,0.56
		c-1.85,2.05-5.11,2.43-7.63,1.65c-5.64-1.75-8.85-7.7-9.76-13.19c-0.6-3.61,0.1-7.8,3.38-9.91l0.73-0.34l0.84-0.28L12.25,32.74z"/>
	<path class="st0" d="M85.97,32.8c0.37-0.03,0.74-0.03,1.11-0.02c2.24,0.09,4.1,1.14,5.33,2.99c2.35,3.52,1.84,8.55,0.23,12.28
		c-2.42,5.59-11.56,13.12-16.9,6.35c-2.34-2.96-2.02-7.05-1.31-10.5c0.62-3,2.51-6.08,4.73-8.15C80.96,34.07,83.48,32.98,85.97,32.8
		z"/>
	<path class="st0" d="M55.94,70.11l0.62,0.06l0.45,0.22l0.34,0.39L57.46,71v0.5l-0.28,0.28l-0.78,0.28l-0.28,0.06h-0.45l-0.5-0.34
		l-0.17-0.45v-0.45l0.17-0.39l0.34-0.28L55.94,70.11z"/>
</g>
</svg>
